<svg width="431" height="80" viewBox="0 0 431 80" fill="none" xmlns="http://www.w3.org/2000/svg">
<path d="M6.65336 1C6.65336 1 1 1 1 6.68064V73.3194C1 73.3194 1 79 6.65336 79H424.347C424.347 79 430 79 430 73.3194V6.68064C430 6.68064 430 1 424.347 1H6.65336Z" stroke="#231815"/>
<path d="M251.3 36.6647V32.5536C251.3 31.5511 251.511 31.0549 252.237 30.8322L257.235 29.7386C257.407 29.6981 257.457 29.5563 257.457 29.3436V26.0325C257.457 25.8806 257.376 25.7793 257.235 25.7793H253.104C252.963 25.7793 252.882 25.8705 252.882 26.0325V28.4424H251.431V25.7894C251.431 24.949 251.965 24.3516 252.721 24.3516H257.628C258.384 24.3516 258.918 24.949 258.918 25.7894V29.2728C258.918 30.2752 258.666 30.8018 257.951 31.0245L252.983 32.0878C252.832 32.1384 252.761 32.2599 252.761 32.4624V35.2268H259.1V36.6647H251.31H251.3Z" fill="#231815"/>
<path d="M261.68 36.6647C260.924 36.6647 260.39 36.0673 260.39 35.2268V25.7894C260.39 24.949 260.924 24.3516 261.68 24.3516H266.799C267.555 24.3516 268.089 24.949 268.089 25.7894V35.2268C268.089 36.0673 267.555 36.6647 266.799 36.6647H261.68ZM266.627 26.0426C266.627 25.8907 266.547 25.7894 266.406 25.7894H262.073C261.931 25.7894 261.851 25.8806 261.851 26.0426V34.9737C261.851 35.1255 261.931 35.2268 262.073 35.2268H266.406C266.547 35.2268 266.627 35.1357 266.627 34.9737V26.0426Z" fill="#231815"/>
<path d="M270.961 36.6631C270.205 36.6631 269.671 36.0657 269.671 35.2252V33.038H271.122V34.9721C271.122 35.124 271.203 35.2252 271.344 35.2252H275.677C275.818 35.2252 275.899 35.1341 275.899 34.9721V31.1951C275.899 31.0432 275.818 30.9419 275.677 30.9419H272.11V29.5041H275.536C275.677 29.5041 275.758 29.4129 275.758 29.2509V26.0309C275.758 25.879 275.677 25.7777 275.536 25.7777H271.475C271.334 25.7777 271.253 25.8689 271.253 26.0309V27.9649H269.802V25.7777C269.802 24.9373 270.336 24.3398 271.092 24.3398H275.929C276.685 24.3398 277.219 24.9373 277.219 25.7777V29.18C277.219 29.6155 277.078 29.9496 276.836 30.1623C277.158 30.3648 277.35 30.7192 277.35 31.2457V35.2151C277.35 36.0555 276.816 36.653 276.06 36.653H270.941L270.961 36.6631Z" fill="#231815"/>
<path d="M280.242 36.6647C279.486 36.6647 278.952 36.0673 278.952 35.2268V25.7894C278.952 24.949 279.486 24.3516 280.242 24.3516H285.361C286.117 24.3516 286.651 24.949 286.651 25.7894V35.2268C286.651 36.0673 286.117 36.6647 285.361 36.6647H280.242ZM285.2 26.0426C285.2 25.8907 285.119 25.7894 284.978 25.7894H280.645C280.504 25.7894 280.423 25.8806 280.423 26.0426V34.9737C280.423 35.1255 280.504 35.2268 280.645 35.2268H284.978C285.119 35.2268 285.2 35.1357 285.2 34.9737V26.0426Z" fill="#231815"/>
<path d="M297.948 33.5155V37.5659H296.466V33.5155H291.176V32.0777H303.238V33.5155H297.948ZM292.466 30.6094V23.9668H293.917V25.8603H300.497V23.9668H301.948V30.6094H292.456H292.466ZM300.497 27.2678H293.917V29.1715H300.497V27.2678Z" fill="#231815"/>
<path d="M311.601 31.9443C310.563 31.0735 309.142 29.7065 308.205 28.7242C307.308 29.7065 305.766 31.195 304.738 32.0962L303.912 30.9519C305.021 29.9697 306.28 28.6837 307.127 27.6914C307.379 27.3775 307.459 27.094 307.459 26.6788V24.1777H308.941V26.6788C308.941 27.1041 309.011 27.3977 309.273 27.6914C310.15 28.6939 311.289 29.8178 312.417 30.7697L311.591 31.9443H311.601ZM305.666 37.4427V32.7847H307.117V36.0048H315.108V37.4427H305.666ZM313.365 33.8682V23.9043H314.816V27.2661H316.448V28.7344H314.816V33.8783H313.365V33.8682Z" fill="#231815"/>
<path d="M322.768 35.0837C321.76 33.6458 320.974 32.4611 320.218 31.0333C319.453 32.4712 318.515 33.9192 317.477 35.3875L316.439 34.4559C317.447 33.0382 318.465 31.408 319.13 30.0815C319.392 29.5347 319.483 28.8056 319.483 28.117V24.4616H320.934V28.117C320.934 28.8056 321.015 29.5347 321.287 30.0815C321.942 31.408 322.718 32.6433 323.725 34.061L322.778 35.0736L322.768 35.0837ZM324.139 37.1595V29.3929H322.184V27.955H324.139V24.0464H325.58V37.1494H324.139V37.1595ZM326.91 23.8945H328.361V37.5443H326.91V23.8945Z" fill="#231815"/>
<path d="M336.876 37.1595V32.6636H334.739V31.2156H336.876V28.2588H335.354C335.354 29.241 335.163 30.0713 334.739 30.6789C333.56 32.4003 332.18 34.1116 330.809 35.833L329.812 34.9115C331.081 33.2914 332.371 31.6814 333.459 30.0511C333.782 29.5853 333.923 29.0385 333.923 28.2993V26.021H330.225V24.5831H335.344V26.8007H336.866V24.0565H338.307V37.1595H336.866H336.876ZM339.788 23.8945H341.239V37.5443H339.788V23.8945Z" fill="#231815"/>
<path d="M342.731 31.1646V24.1068H344.182V26.213H348.072V24.1068H349.523V31.1646H342.721H342.731ZM351.548 37.6047V34.0606H343.708V32.6227H353V37.6047H351.548ZM348.082 27.6205H344.192V29.7267H348.082V27.6205ZM351.548 31.9342V23.9043H353V26.9522H354.632V28.4205H353V31.9342H351.548Z" fill="#231815"/>
<path d="M355.832 31.0839V26.9323H361.193V25.6159H355.832V24.1781H362.644V28.3196H357.283V29.6461H363.541V31.0839H355.832ZM356.961 32.4611H366.111V37.443H356.961V32.4611ZM364.66 33.8989H358.422V36.0051H364.66V33.8989ZM364.66 31.7725V23.8945H366.111V26.9424H367.743V28.4107H366.111V31.7725H364.66Z" fill="#231815"/>
<path d="M368.639 35.8654V34.5085H372.337V33.1516C370.614 32.9289 369.576 31.8859 369.576 30.3063C369.576 28.5241 370.916 27.4204 373.073 27.4204C375.23 27.4204 376.57 28.5241 376.57 30.3063C376.57 31.8859 375.522 32.9289 373.809 33.1516V34.5085H377.598V35.8654H368.629H368.639ZM369.244 26.8027V25.4458H372.347V23.7852H373.799V25.4458H376.902V26.8027H369.234H369.244ZM373.073 28.7367C371.783 28.7367 371.027 29.4253 371.027 30.2961C371.027 31.167 371.783 31.8555 373.073 31.8555C374.363 31.8555 375.119 31.167 375.119 30.2961C375.119 29.4253 374.363 28.7367 373.073 28.7367ZM378.162 23.8965H379.613V37.5665H378.162V23.8965Z" fill="#231815"/>
<path d="M392.119 37.5652V33.2718H388.874V37.5652H387.403V33.2718H384.46V31.8339H396.522V33.2718H393.58V37.5652H392.109H392.119ZM388.44 30.5074C386.667 30.5074 385.377 29.1809 385.377 27.2469C385.377 25.3128 386.667 23.9863 388.44 23.9863H392.552C394.326 23.9863 395.616 25.3128 395.616 27.2469C395.616 29.1809 394.326 30.5074 392.552 30.5074H388.44ZM388.521 25.4141C387.523 25.4141 386.828 26.1128 386.828 27.2469C386.828 28.381 387.523 29.0695 388.521 29.0695H392.471C393.469 29.0695 394.164 28.3709 394.164 27.2469C394.164 26.1229 393.459 25.4141 392.471 25.4141H388.521Z" fill="#231815"/>
<path d="M405.008 35.567C403.748 33.8962 402.63 32.4785 401.662 30.9394C400.715 32.4684 399.395 34.1392 398.146 35.7492L397.198 34.6556C398.377 33.157 399.647 31.3951 400.524 29.8559C400.786 29.4003 400.897 28.7016 400.897 28.0738V27.0004H397.793V25.5625H400.897V23.75H402.378V25.5625H405.371V27.0004H402.378V28.0333C402.378 28.6611 402.479 29.3496 402.741 29.7952C403.617 31.3141 404.807 32.9646 405.945 34.4632L404.998 35.5568L405.008 35.567ZM406.983 23.9019H408.434V37.5719H406.983V23.9019Z" fill="#231815"/>
<path d="M409.795 39.2563L410.359 35.3477H412.133L410.984 39.2563H409.795Z" fill="#231815"/>
<path d="M258.616 54.952V56.5721H251.673V43.6211H253.517V54.952H258.616Z" fill="#231815"/>
<path d="M268.633 55.9134C267.575 56.45 266.104 56.7842 264.491 56.7842C260.763 56.7842 259.09 54.4249 259.09 50.1011C259.09 45.5444 261.186 43.418 264.653 43.418C266.335 43.418 267.756 43.9749 268.653 45.2001L267.514 46.3241C266.88 45.5343 266.013 44.9976 264.683 44.9976C262.143 44.9976 260.974 46.8405 260.974 50.2631C260.974 53.4629 262.143 55.1235 264.592 55.1235C265.116 55.1235 265.58 55.083 266.013 55.002C266.305 54.9514 266.587 54.8805 266.829 54.8096V51.3263H264.179V49.7163H268.643V55.8931L268.633 55.9134Z" fill="#231815"/>
<path d="M270.214 54.0701C272.018 52.5918 273.671 50.9615 274.83 49.6046C275.253 49.1084 275.454 48.511 275.454 47.7819V45.453H270.446V44.0151H276.905V47.9237C276.905 48.9667 276.694 49.7059 276.009 50.4653C274.426 52.2272 272.885 53.6854 271.041 55.184L270.204 54.0701H270.214ZM279.012 56.9864V43.3164H280.463V48.4401H282.216V49.9084H280.463V56.9864H279.012Z" fill="#231815"/>
<path d="M287.739 45.6939V44.256H290.934V42.9902H292.385V44.256H295.549V45.6939H287.739ZM290.682 51.2732C289.11 51.2732 288.082 50.4733 288.082 48.8531C288.082 47.233 289.12 46.433 290.682 46.433H292.637C294.209 46.433 295.237 47.233 295.237 48.8531C295.237 50.4733 294.199 51.2732 292.637 51.2732H290.682ZM289.18 52.1947H298.33V56.8627H289.18V52.1947ZM292.506 49.8961C293.201 49.8961 293.776 49.6936 293.776 48.8531C293.776 48.0127 293.201 47.8102 292.506 47.8102H290.803C290.107 47.8102 289.533 48.0127 289.533 48.8531C289.533 49.6936 290.107 49.8961 290.803 49.8961H292.506ZM296.869 53.5313H290.631V55.516H296.869V53.5313ZM296.869 51.658V43.3143H298.32V46.7368H299.953V48.2051H298.32V51.658H296.869Z" fill="#231815"/>
<path d="M300.547 53.604C301.132 52.1054 301.706 50.6472 302.18 49.1385C302.331 48.6423 302.361 48.1967 302.361 47.4677V45.4526H300.85V44.0147H303.812V47.6702C303.812 48.5613 303.701 49.0473 303.449 49.827C302.956 51.3257 302.442 52.6825 301.827 54.171L300.537 53.604H300.547ZM308.538 56.5911V49.9182H307.097L306.997 50.2827C306.523 51.9535 305.979 53.5939 305.364 55.2545L304.074 54.6875C304.659 52.9863 305.203 51.2852 305.687 49.5941C305.828 49.1081 305.888 48.6524 305.888 47.9233V45.4526H304.306V44.0147H307.339V48.4499H308.538V43.4781H309.98V56.581H308.538V56.5911ZM311.068 43.3262H312.519V56.9759H311.068V43.3262Z" fill="#231815"/>
<path d="M318.434 49.3424H330.496V50.7803H318.434V49.3424ZM322.293 56.9369C320.54 56.9369 319.28 55.985 319.28 54.4054C319.28 52.8257 320.54 51.8739 322.293 51.8739H326.626C328.38 51.8739 329.64 52.8257 329.64 54.4054C329.64 55.985 328.38 56.9369 326.626 56.9369H322.293ZM322.283 48.2994C320.58 48.2994 319.33 47.3577 319.33 45.7882C319.33 44.2187 320.58 43.2871 322.283 43.2871H326.647C328.35 43.2871 329.599 44.2086 329.599 45.7882C329.599 47.3679 328.35 48.2994 326.647 48.2994H322.283ZM322.384 53.3118C321.416 53.3118 320.751 53.6358 320.751 54.4054C320.751 55.1749 321.427 55.499 322.384 55.499H326.556C327.523 55.499 328.188 55.1749 328.188 54.4054C328.188 53.6358 327.513 53.3118 326.556 53.3118H322.384ZM322.414 44.6541C321.396 44.6541 320.792 44.9984 320.792 45.7781C320.792 46.5578 321.396 46.9223 322.414 46.9223H326.526C327.543 46.9223 328.148 46.5679 328.148 45.7781C328.148 44.9883 327.543 44.6541 326.526 44.6541H322.414Z" fill="#231815"/>
<path d="M336.835 50.6374V53.0474H335.384V50.6374H332.059V49.1996H340.594V50.6374H336.845H336.835ZM336.362 48.5718C333.842 48.5718 332.593 47.4579 332.593 45.9593C332.593 44.4606 333.842 43.3367 336.362 43.3367C338.881 43.3367 340.12 44.4606 340.12 45.9593C340.12 47.4579 338.871 48.5718 336.362 48.5718ZM333.449 56.8649V52.9563H334.9V55.4979H343.305V56.8548H333.439L333.449 56.8649ZM336.362 44.7239C334.82 44.7239 334.054 45.291 334.054 45.9593C334.054 46.6276 334.82 47.1744 336.362 47.1744C337.903 47.1744 338.669 46.6073 338.669 45.9593C338.669 45.3112 337.903 44.7239 336.362 44.7239ZM341.572 54.06V52.9563H338.498V51.5792H341.572V43.3164H343.023V54.06H341.572Z" fill="#231815"/>
<path d="M344.817 46.3654V44.9883H347.991V43.1758H349.442V44.9883H352.617V46.3654H344.807H344.817ZM352.244 51.8334C352.244 53.8283 350.863 55.2358 348.717 55.2358C346.57 55.2358 345.179 53.8283 345.179 51.8334V50.6285C345.179 48.6337 346.56 47.2262 348.717 47.2262C350.873 47.2262 352.244 48.6438 352.244 50.6285V51.8334ZM350.793 50.7398C350.793 49.3627 349.966 48.6033 348.727 48.6033C347.487 48.6033 346.641 49.3526 346.641 50.7398V51.7221C346.641 53.1093 347.467 53.8586 348.727 53.8586C349.986 53.8586 350.793 53.1093 350.793 51.7221V50.7398ZM353.846 56.9875V43.3175H355.297V49.2108H357.051V50.6791H355.297V56.9875H353.846Z" fill="#231815"/>
<path d="M365.838 51.0421V47.9638H364.065C363.944 48.3385 363.672 48.5917 363.198 48.8651L358.986 51.3459L358.371 50.0802L362.251 47.6904C362.654 47.4373 362.755 47.1943 362.755 46.5462V45.1083H358.966V43.6705H364.216V46.5158H365.848V43.4679H367.289V51.032H365.848L365.838 51.0421ZM370.151 57.0569C369.335 56.4494 368.247 55.7709 367.41 55.133C366.584 55.8621 365.858 56.3987 365.062 56.9759C364.266 56.4494 363.541 55.8519 362.714 55.133C361.949 55.7912 360.911 56.4595 360.114 57.0569L359.278 55.7912C360.004 55.2646 361.031 54.5153 361.626 53.9179C361.838 53.7154 361.928 53.3913 361.928 53.0774V51.5788H363.38V53.0774C363.38 53.4015 363.44 53.7052 363.631 53.9179C363.924 54.2419 364.669 54.9001 365.062 55.1836C365.465 54.89 366.171 54.2824 366.493 53.9179C366.675 53.7154 366.745 53.4015 366.745 53.0774V51.5788H368.196V53.0774C368.196 53.3913 368.277 53.7356 368.509 53.9179C369.124 54.4546 370.262 55.2646 370.998 55.7912L370.161 57.0569H370.151ZM368.579 43.3262H370.031V51.0421H368.579V43.3262Z" fill="#231815"/>
<path d="M371.612 49.0687H383.675V50.5066H371.612V49.0687ZM382.496 48.4308C379.775 47.084 378.173 46.3043 377.628 45.9297C377.084 46.3043 375.472 47.084 372.761 48.4308L372.106 47.1954C373.376 46.5575 375.059 45.6968 376.328 44.988C376.661 44.8057 376.893 44.4918 376.893 43.9855V43.1855H378.374V43.9855C378.374 44.4817 378.596 44.7956 378.939 44.988C380.208 45.6866 381.891 46.5474 383.161 47.1954L382.506 48.4308H382.496ZM372.801 56.8657V51.6204H374.253V52.8052H381.024V51.6204H382.476V56.8657H372.791H372.801ZM381.024 54.2127H374.253V55.4278H381.024V54.2127Z" fill="#231815"/>
<path d="M385.458 54.4748V43.8527H386.909V53.0369H393.288V54.4748H385.448H385.458ZM394.457 43.3262H395.908V56.9962H394.457V43.3262Z" fill="#231815"/>
<path d="M398.015 54.5558V44.0147H404.535V45.4526H399.466V53.1281H405.633V54.566H398.005L398.015 54.5558ZM406.52 56.9962V43.3262H407.971V48.298H409.725V49.7663H407.971V56.9962H406.52Z" fill="#231815"/>
<path d="M102.843 24.5117C102.49 24.5826 102.218 24.8459 102.117 25.18C102.107 25.2104 102.097 25.2408 102.097 25.2712L99.8295 34.1719L97.2195 24.5117H95.0025L92.3723 34.1921L90.1956 25.3319L90.1553 25.1598C90.0243 24.775 89.6716 24.5117 89.2484 24.5117H87.5957L90.9111 36.754L90.9615 36.9565C90.9615 36.9565 90.9615 36.9565 90.9615 36.9666C91.1026 37.3109 91.4452 37.5539 91.8483 37.5539H93.3599L96.1009 27.509L98.7311 37.5539H100.202C100.595 37.5539 100.938 37.3109 101.079 36.9767L101.14 36.754L104.505 24.5117H102.853H102.843Z" fill="#231815"/>
<path d="M108.999 37.7054C108.294 37.7054 107.649 37.6041 107.084 37.4016C106.51 37.1991 106.026 36.9054 105.623 36.5105C105.22 36.1258 104.908 35.6397 104.686 35.0727C104.464 34.5056 104.354 33.8474 104.354 33.1285V31.9539C104.354 31.2147 104.464 30.5666 104.686 29.9996C104.908 29.4325 105.22 28.9566 105.623 28.5718C106.026 28.187 106.51 27.8934 107.084 27.6807C107.649 27.4782 108.294 27.377 108.999 27.377C109.705 27.377 110.329 27.4782 110.904 27.6807C111.478 27.8832 111.972 28.187 112.375 28.5718C112.778 28.9566 113.091 29.4325 113.312 29.9996C113.534 30.5666 113.645 31.2147 113.645 31.9539V33.1285C113.645 33.8474 113.534 34.5056 113.312 35.0727C113.091 35.6498 112.778 36.1258 112.375 36.5105C111.972 36.8953 111.488 37.189 110.904 37.4016C110.329 37.6041 109.694 37.7054 108.999 37.7054ZM108.999 35.7106C109.332 35.7106 109.644 35.66 109.936 35.5688C110.229 35.4777 110.47 35.3258 110.682 35.1132C110.894 34.9106 111.055 34.6372 111.176 34.3031C111.297 33.9689 111.357 33.5639 111.357 33.088V31.9842C111.357 31.0324 111.146 30.354 110.712 29.9591C110.289 29.5642 109.715 29.3616 108.989 29.3616C108.264 29.3616 107.699 29.5642 107.266 29.9591C106.843 30.354 106.621 31.0324 106.621 31.9842V33.088C106.621 33.5538 106.681 33.9588 106.802 34.3031C106.923 34.6372 107.084 34.9106 107.296 35.1132C107.508 35.3157 107.76 35.4676 108.042 35.5688C108.334 35.6701 108.646 35.7106 108.979 35.7106" fill="#231815"/>
<path d="M120.659 27.4276C120.407 27.3871 120.155 27.377 119.903 27.377C119.198 27.377 118.623 27.5288 118.18 27.8326C117.746 28.1364 117.394 28.5414 117.132 29.0477H117.101V27.5997H115.882C115.348 27.5997 114.925 28.025 114.925 28.5617V37.5636H116.245C116.739 37.5636 117.142 37.189 117.192 36.7029V31.6501C117.192 31.3261 117.253 31.0223 117.364 30.7489C117.474 30.4755 117.636 30.2426 117.827 30.0502C118.029 29.8477 118.26 29.6958 118.532 29.5844C118.805 29.473 119.097 29.4224 119.409 29.4224C119.701 29.4224 119.933 29.4426 120.125 29.473C120.316 29.5135 120.498 29.5642 120.669 29.635L121.314 27.5693C121.132 27.5086 120.921 27.458 120.669 27.4276" fill="#231815"/>
<path d="M122.937 23.8848C122.413 23.8848 121.979 24.3202 121.979 24.8467V37.5649H123.29C123.814 37.5649 124.247 37.1396 124.247 36.6029V23.8848H122.937Z" fill="#231815"/>
<path d="M133.053 23.8855C132.539 23.8855 132.126 24.2905 132.096 24.7968V28.4421C132.025 28.3308 131.924 28.2194 131.793 28.0877C131.662 27.9662 131.491 27.8447 131.28 27.7435C131.068 27.6422 130.816 27.5511 130.524 27.4802C130.231 27.4093 129.889 27.3688 129.486 27.3688C128.891 27.3688 128.337 27.4701 127.853 27.6625C127.37 27.865 126.956 28.1485 126.604 28.513C126.261 28.8877 125.989 29.3332 125.808 29.8699C125.626 30.4066 125.525 31.0141 125.525 31.6824V33.4342C125.525 34.781 125.838 35.8341 126.473 36.5733C127.097 37.3125 128.055 37.6871 129.325 37.6871C129.929 37.6871 130.483 37.5859 130.997 37.3935C131.511 37.1909 131.904 36.8467 132.166 36.3708H132.217V37.5454H133.406C133.93 37.5454 134.363 37.1201 134.363 36.5834V23.8652H133.053V23.8855ZM132.136 33.333C132.136 33.6671 132.086 33.9912 131.975 34.2848C131.864 34.5785 131.713 34.8417 131.511 35.0645C131.31 35.2873 131.068 35.4594 130.776 35.5911C130.483 35.7126 130.151 35.7834 129.778 35.7834C129.113 35.7834 128.619 35.5506 128.276 35.0848C127.934 34.619 127.763 33.9709 127.763 33.1203V31.9964C127.763 31.166 127.934 30.518 128.276 30.042C128.619 29.5763 129.153 29.3332 129.869 29.3332C130.262 29.3332 130.604 29.394 130.887 29.5155C131.169 29.637 131.4 29.7889 131.582 29.9813C131.773 30.1737 131.904 30.3762 131.995 30.6192C132.086 30.8521 132.126 31.085 132.126 31.3179V33.3431L132.136 33.333Z" fill="#231815"/>
<path d="M92.7943 36.5925C92.7943 36.5925 92.7943 36.6633 92.7943 36.6937C92.7439 37.1798 92.3408 37.5544 91.847 37.5544C91.4439 37.5544 91.1113 37.3114 90.9602 36.9671C90.9602 36.9671 90.9602 36.9671 90.9602 36.957C90.94 36.8962 90.9199 36.8254 90.9098 36.7545C90.8997 36.7038 90.8896 36.6532 90.8896 36.6026C90.8896 36.076 91.3129 35.6406 91.847 35.6406C92.2702 35.6406 92.6229 35.914 92.754 36.2887L92.7943 36.4608C92.7943 36.4608 92.7943 36.4912 92.7943 36.5013C92.7943 36.5317 92.7943 36.5722 92.7943 36.6026" fill="#231815"/>
<path d="M134.363 36.5928C134.363 37.1194 133.94 37.5548 133.406 37.5548C132.871 37.5548 132.448 37.1295 132.448 36.5928C132.448 36.0561 132.871 35.6309 133.406 35.6309C133.94 35.6309 134.363 36.0561 134.363 36.5928Z" fill="#231815"/>
<path d="M147.403 35.6518H142.163V31.8344H147.857V29.9509H142.163V26.4372H147.282C147.786 26.4372 148.199 26.0423 148.229 25.5462V24.5234H140.823C140.299 24.5234 139.865 24.9487 139.865 25.4854V36.6239C139.865 37.1505 140.299 37.5859 140.823 37.5859H148.35V36.6239C148.35 36.0872 147.917 35.662 147.393 35.662" fill="#231815"/>
<path d="M159.283 36.0553L159.021 35.6199L156.16 30.8708L158.739 26.6382L159.263 25.7775L160.029 24.5117H158.115C157.722 24.5117 157.369 24.7142 157.167 25.018L157.077 25.1902L154.769 29.3317L152.522 25.1496L152.491 25.0889C152.29 24.7446 151.927 24.5117 151.494 24.5117H149.398L153.096 30.7392L150.325 35.4578L149.841 36.278L149.075 37.5742H150.99C151.403 37.5742 151.766 37.3514 151.977 37.0274C151.977 37.0274 151.977 37.0274 151.977 37.0172L152.028 36.9261L154.547 32.3188L157.167 36.9565L157.197 37.0172C157.399 37.3514 157.762 37.5742 158.175 37.5742H160.18L159.263 36.0553H159.283Z" fill="#231815"/>
<path d="M170.46 26.7597C170.289 26.304 170.017 25.9091 169.654 25.5749C169.291 25.2408 168.838 24.9775 168.273 24.7952C167.709 24.6029 167.044 24.5117 166.268 24.5117H162.318C161.794 24.5117 161.36 24.937 161.36 25.4737V37.5742H162.711C163.235 37.5742 163.668 37.1489 163.668 36.6122V32.5517H166.268C167.024 32.5517 167.679 32.4504 168.233 32.2378C168.787 32.0252 169.251 31.7416 169.624 31.3872C169.997 31.0328 170.269 30.6176 170.45 30.1417C170.631 29.6658 170.722 29.1595 170.722 28.633V28.2482C170.722 27.7216 170.642 27.2255 170.46 26.7597ZM168.394 28.5925C168.394 29.3519 168.183 29.8785 167.749 30.1721C167.316 30.4556 166.721 30.6075 165.966 30.6075H163.678V26.466H166.167C166.49 26.466 166.792 26.4964 167.064 26.547C167.336 26.5977 167.578 26.6989 167.78 26.8407C167.981 26.9824 168.132 27.1647 168.243 27.3976C168.354 27.6204 168.404 27.9242 168.404 28.2887V28.6127L168.394 28.5925Z" fill="#231815"/>
<path d="M177.101 24.3203C177.836 24.3203 178.532 24.4216 179.197 24.6342C179.862 24.8469 180.447 25.181 180.95 25.6266C181.454 26.0822 181.857 26.6594 182.15 27.3783C182.442 28.0872 182.593 28.9479 182.593 29.9706V32.1274C182.593 33.1501 182.442 34.0311 182.15 34.75C181.857 35.469 181.454 36.0461 180.96 36.5018C180.467 36.9473 179.882 37.2714 179.217 37.4739C178.552 37.6764 177.847 37.7777 177.101 37.7777C176.355 37.7777 175.65 37.6764 174.985 37.4739C174.319 37.2714 173.735 36.9473 173.231 36.5018C172.727 36.0563 172.334 35.469 172.042 34.75C171.75 34.0311 171.599 33.1602 171.599 32.1274V29.9706C171.599 28.958 171.74 28.0973 172.042 27.3783C172.334 26.6695 172.737 26.0822 173.241 25.6266C173.745 25.1709 174.33 24.8469 175.005 24.6342C175.67 24.4216 176.375 24.3203 177.101 24.3203ZM177.101 35.6512C177.544 35.6512 177.957 35.5905 178.34 35.4791C178.723 35.3677 179.066 35.1652 179.348 34.8715C179.64 34.5779 179.862 34.183 180.023 33.6969C180.184 33.2008 180.265 32.5831 180.265 31.8338V30.2541C180.265 29.5048 180.184 28.8871 180.023 28.3909C179.862 27.8948 179.63 27.4999 179.348 27.2163C179.056 26.9227 178.723 26.7202 178.34 26.6088C177.957 26.4974 177.544 26.4366 177.101 26.4366C176.657 26.4366 176.264 26.4974 175.871 26.6088C175.488 26.7303 175.146 26.9227 174.864 27.2163C174.571 27.51 174.35 27.8948 174.178 28.3909C174.007 28.8871 173.926 29.5048 173.926 30.2541V31.8338C173.926 32.5831 174.007 33.2008 174.178 33.6969C174.35 34.1931 174.571 34.588 174.864 34.8715C175.156 35.1652 175.488 35.3576 175.871 35.4791C176.254 35.5905 176.668 35.6512 177.101 35.6512Z" fill="#231815"/>
<path d="M195.028 35.6711H189.737L193.557 31.7929C194.171 31.1752 194.635 30.5474 194.947 29.8993C195.27 29.2513 195.431 28.5728 195.431 27.864V27.6818C195.431 27.2362 195.35 26.8109 195.189 26.4059C195.028 26.0009 194.776 25.6464 194.433 25.3427C194.091 25.0389 193.657 24.7959 193.123 24.6035C192.599 24.4212 191.964 24.3301 191.229 24.3301C190.564 24.3301 189.999 24.4212 189.506 24.6035C189.022 24.7857 188.599 25.0085 188.246 25.2819C187.893 25.5553 187.601 25.8591 187.369 26.173C187.137 26.497 186.936 26.8008 186.785 27.0843L188.518 28.2286C188.74 27.8539 188.951 27.5501 189.173 27.3071C189.395 27.0641 189.616 26.8818 189.848 26.7502C190.08 26.6185 190.312 26.5274 190.544 26.4768C190.775 26.4261 191.017 26.4059 191.259 26.4059C191.934 26.4059 192.408 26.5477 192.69 26.8312C192.972 27.1147 193.113 27.4286 193.113 27.783V27.9248C193.113 28.107 193.103 28.2893 193.073 28.4918C193.053 28.6842 192.982 28.8969 192.871 29.1196C192.761 29.3525 192.599 29.6057 192.388 29.8993C192.166 30.193 191.874 30.5271 191.501 30.9119L187.127 35.4382L186.986 35.58C186.986 35.58 186.946 35.6306 186.926 35.6711C186.886 35.7217 186.855 35.7825 186.835 35.8433C186.765 35.985 186.734 36.147 186.734 36.3192V37.6052H195.925V36.6432C195.925 36.1369 195.532 35.7217 195.038 35.6914" fill="#231815"/>
<path d="M206.203 32.0663C206.203 33.9295 205.81 35.3471 205.034 36.3192C204.258 37.2913 203.079 37.7874 201.507 37.7874C199.935 37.7874 198.766 37.2913 197.92 36.2989C197.083 35.3066 196.66 33.889 196.66 32.0663V30.0411C196.66 28.2083 197.073 26.7907 197.91 25.8085C198.746 24.8262 199.925 24.3301 201.447 24.3301C202.969 24.3301 204.168 24.8262 204.984 25.8085C205.8 26.7907 206.213 28.1982 206.213 30.0411V32.0663H206.203ZM203.875 30.0208C203.875 29.2715 203.805 28.6741 203.664 28.2083C203.523 27.7526 203.341 27.3982 203.12 27.1451C202.898 26.9021 202.636 26.7299 202.344 26.6489C202.041 26.5679 201.749 26.5274 201.427 26.5274C201.104 26.5274 200.832 26.5679 200.54 26.6489C200.248 26.7299 199.976 26.9021 199.744 27.1552C199.512 27.4084 199.321 27.7628 199.179 28.2184C199.038 28.6741 198.968 29.2715 198.968 30.0107V32.0764C198.968 32.8257 199.038 33.4333 199.19 33.889C199.341 34.3446 199.532 34.699 199.774 34.9522C200.016 35.2053 200.288 35.3775 200.58 35.4585C200.883 35.5395 201.185 35.58 201.487 35.58C201.789 35.58 202.102 35.5395 202.384 35.4585C202.676 35.3673 202.928 35.2053 203.14 34.9623C203.351 34.7193 203.533 34.3649 203.664 33.9092C203.795 33.4535 203.865 32.8359 203.865 32.0764V30.0107L203.875 30.0208Z" fill="#231815"/>
<path d="M214.97 31.7925C214.567 31.266 213.922 30.9217 213.066 30.7597C213.439 30.6179 213.741 30.4255 213.983 30.2028C214.225 29.9699 214.416 29.7167 214.557 29.4534C214.698 29.18 214.799 28.8965 214.849 28.6029C214.9 28.3092 214.93 28.0358 214.93 27.7827V27.6004C214.93 27.1143 214.839 26.6789 214.648 26.2638C214.456 25.8587 214.184 25.5145 213.832 25.2309C213.489 24.9474 213.066 24.7246 212.572 24.5727C212.078 24.4107 211.524 24.3398 210.919 24.3398C209.982 24.3398 209.206 24.512 208.612 24.8563C208.007 25.2005 207.493 25.6562 207.06 26.2233L208.632 27.4485C208.924 27.1346 209.236 26.8713 209.579 26.6688C209.922 26.4663 210.375 26.365 210.919 26.365C211.464 26.365 211.887 26.4764 212.209 26.6992C212.532 26.922 212.683 27.2764 212.683 27.7725V27.9143C212.683 28.1978 212.653 28.451 212.602 28.6839C212.552 28.9168 212.451 29.1193 212.3 29.2813C212.159 29.4433 211.957 29.5749 211.695 29.6661C211.433 29.7572 211.101 29.8078 210.698 29.8078H210.002C209.559 29.8483 209.206 30.1926 209.156 30.6382V31.8027H210.899C211.726 31.8027 212.33 31.9545 212.703 32.2482C213.076 32.5418 213.257 33.0076 213.257 33.6557V33.8886C213.257 34.4658 213.066 34.9214 212.683 35.2455C212.3 35.5695 211.695 35.7315 210.879 35.7315C210.617 35.7315 210.365 35.7214 210.143 35.6809C209.912 35.6404 209.68 35.5796 209.438 35.4885C209.196 35.3974 208.944 35.2758 208.692 35.1138C208.43 34.9518 208.148 34.7695 207.836 34.5367L206.707 36.3492C207.322 36.8454 207.977 37.2099 208.682 37.4428C209.388 37.6757 210.113 37.7972 210.869 37.7972C211.625 37.7972 212.35 37.6858 212.945 37.4833C213.539 37.2706 214.033 36.9871 214.426 36.6428C214.819 36.2986 215.101 35.8935 215.303 35.4277C215.494 34.9721 215.595 34.4961 215.595 34V33.7266C215.595 32.9773 215.394 32.3393 214.98 31.8027" fill="#231815"/>
<path d="M226.268 32.0663C226.268 33.9295 225.875 35.3471 225.099 36.3192C224.313 37.2913 223.144 37.7874 221.562 37.7874C219.98 37.7874 218.821 37.2913 217.975 36.2989C217.128 35.3066 216.715 33.889 216.715 32.0663V30.0411C216.715 28.2083 217.138 26.7907 217.975 25.8085C218.811 24.8262 219.99 24.3301 221.512 24.3301C223.033 24.3301 224.222 24.8262 225.049 25.8085C225.865 26.7907 226.268 28.1982 226.268 30.0411V32.0663ZM223.95 30.0208C223.95 29.2715 223.88 28.6741 223.739 28.2083C223.598 27.7526 223.416 27.3982 223.205 27.1451C222.983 26.9021 222.721 26.7299 222.429 26.6489C222.136 26.5679 221.834 26.5274 221.522 26.5274C221.209 26.5274 220.927 26.5679 220.625 26.6489C220.333 26.7299 220.071 26.9021 219.829 27.1552C219.597 27.4084 219.405 27.7628 219.264 28.2184C219.123 28.6741 219.043 29.2715 219.043 30.0107V32.0764C219.043 32.8257 219.123 33.4333 219.264 33.889C219.416 34.3446 219.607 34.699 219.849 34.9522C220.091 35.2053 220.363 35.3775 220.655 35.4585C220.957 35.5395 221.26 35.58 221.552 35.58C221.844 35.58 222.167 35.5395 222.449 35.4585C222.741 35.3673 222.993 35.2053 223.205 34.9623C223.426 34.7193 223.598 34.3649 223.729 33.9092C223.86 33.4535 223.93 32.8359 223.93 32.0764V30.0107L223.95 30.0208Z" fill="#231815"/>
<path d="M89.1162 42.6777H92.744C95.1525 42.6777 96.3517 43.6701 96.3517 45.6548V46.0092C96.3517 46.2826 96.3215 46.5458 96.261 46.799C96.2005 47.0521 96.0998 47.285 95.9587 47.4977C95.8176 47.7103 95.6261 47.9027 95.3944 48.0647C95.1525 48.2267 94.8703 48.3584 94.5378 48.4495C95.2331 48.5609 95.7974 48.8444 96.2308 49.3001C96.6641 49.7456 96.8858 50.3937 96.8858 51.2443V51.6696C96.8858 52.672 96.5935 53.4618 95.999 54.0289C95.4044 54.5959 94.4874 54.8795 93.2479 54.8795H89.1364V42.6777H89.1162ZM90.2046 43.7106V48.004H92.7743C93.5603 48.004 94.175 47.8622 94.6083 47.5686C95.0417 47.2749 95.2533 46.7484 95.2533 45.9788V45.675C95.2533 44.9561 95.0417 44.4498 94.6285 44.1561C94.2153 43.8625 93.5603 43.7106 92.6634 43.7106H90.2046ZM90.2046 53.8264H93.137C94.0339 53.8264 94.6889 53.6441 95.1122 53.2796C95.5354 52.915 95.7471 52.3682 95.7471 51.6493V51.2746C95.7471 50.9 95.6967 50.576 95.606 50.2924C95.5153 50.0089 95.344 49.776 95.1122 49.5836C94.8804 49.3912 94.5781 49.2495 94.1952 49.1482C93.8122 49.0571 93.3386 49.0064 92.7743 49.0064H90.1844V53.8264H90.2046Z" fill="#231815"/>
<path d="M102.8 53.9985C103.788 53.9985 104.524 53.6644 105.017 52.9859C105.501 52.3075 105.753 51.2139 105.753 49.6849V42.6777H106.841V50.1203C106.841 51.8113 106.489 53.0568 105.783 53.8568C105.068 54.6567 104.08 55.0617 102.811 55.0617C101.541 55.0617 100.533 54.6567 99.8276 53.8568C99.1222 53.0568 98.7695 51.8113 98.7695 50.1203V42.6777H99.8579V49.6849C99.8579 51.2038 100.1 52.3075 100.594 52.9859C101.077 53.6644 101.823 53.9985 102.811 53.9985" fill="#231815"/>
<path d="M112.858 53.9688C113.301 53.9688 113.694 53.9181 114.047 53.7966C114.4 53.6852 114.702 53.5334 114.944 53.3308C115.186 53.1384 115.377 52.9055 115.508 52.6524C115.629 52.3993 115.7 52.136 115.7 51.8626V51.5082C115.7 51.2246 115.66 50.9715 115.579 50.7487C115.498 50.526 115.347 50.3133 115.125 50.131C114.904 49.9488 114.601 49.7766 114.218 49.6247C113.836 49.4729 113.342 49.321 112.727 49.1792C112.062 49.0172 111.508 48.8349 111.064 48.6324C110.621 48.4198 110.258 48.1869 109.996 47.9236C109.724 47.6603 109.543 47.3667 109.432 47.0426C109.321 46.7186 109.271 46.3642 109.271 45.9895V45.6048C109.271 45.139 109.361 44.7238 109.543 44.339C109.724 43.9644 109.986 43.6302 110.319 43.3669C110.651 43.0935 111.044 42.8809 111.498 42.729C111.951 42.5771 112.455 42.4961 112.989 42.4961C113.755 42.4961 114.41 42.5974 114.964 42.7897C115.508 42.9923 115.982 43.2353 116.365 43.5289L115.841 44.4909C115.478 44.2074 115.055 43.9846 114.581 43.8226C114.108 43.6606 113.574 43.5796 112.989 43.5796C112.646 43.5796 112.314 43.6201 112.001 43.7112C111.689 43.8023 111.407 43.934 111.175 44.1061C110.933 44.2783 110.752 44.4909 110.611 44.7441C110.47 44.9871 110.399 45.2706 110.399 45.5845V45.9187C110.399 46.1819 110.439 46.4148 110.53 46.6275C110.621 46.8401 110.762 47.0325 110.974 47.2047C111.175 47.3768 111.457 47.5287 111.8 47.6806C112.153 47.8325 112.576 47.9641 113.09 48.0856C113.825 48.2679 114.43 48.4603 114.914 48.6729C115.398 48.8856 115.78 49.1185 116.063 49.3919C116.345 49.6653 116.546 49.969 116.657 50.3032C116.778 50.6373 116.828 51.0322 116.828 51.4677V51.8525C116.828 52.298 116.738 52.703 116.556 53.0878C116.375 53.4726 116.123 53.8068 115.791 54.1004C115.458 54.3941 115.045 54.627 114.561 54.789C114.067 54.9611 113.523 55.0421 112.908 55.0421C112.153 55.0421 111.447 54.9206 110.792 54.6776C110.137 54.4346 109.553 54.1004 109.049 53.6852L109.613 52.6828C110.177 53.1182 110.732 53.4422 111.276 53.6346C111.82 53.8371 112.344 53.9283 112.858 53.9283" fill="#231815"/>
<path d="M127.682 54.8795H126.503L125.243 51.0924H120.436L119.147 54.8795H118.008L122.23 42.6777H123.48L127.692 54.8795H127.682ZM120.779 50.0595H124.891L123.782 46.7585C123.712 46.556 123.641 46.3534 123.581 46.1712C123.52 45.9788 123.45 45.7661 123.379 45.5332C123.308 45.3003 123.228 45.0371 123.147 44.7535C123.067 44.47 122.966 44.1257 122.845 43.7308C122.734 44.1257 122.643 44.47 122.563 44.7535C122.482 45.0371 122.402 45.3003 122.331 45.5332C122.26 45.7661 122.19 45.9788 122.129 46.1712C122.069 46.3636 121.998 46.556 121.928 46.7585L120.789 50.0595H120.779Z" fill="#231815"/>
<path d="M129.335 42.6777H130.645L135.865 52.2164C135.956 52.3885 136.046 52.5505 136.117 52.7227C136.188 52.8847 136.288 53.0973 136.399 53.3606V42.6879H137.457V54.8896H136.147L130.917 45.3105C130.826 45.1282 130.736 44.9662 130.665 44.8244C130.595 44.6827 130.504 44.4801 130.393 44.2169V54.8896H129.335V42.6879V42.6777Z" fill="#231815"/>
<path d="M140.168 53.5938H141.549L140.42 57.4011H139.503L140.168 53.5938Z" fill="#231815"/>
<path d="M151.213 47.8926L156.241 54.8795H154.83L150.427 48.7533L148.975 50.3633V54.8795H147.877V42.6777H148.975V48.8444L154.467 42.6777H155.949L151.213 47.8926Z" fill="#231815"/>
<path d="M161.541 42.4961C162.247 42.4961 162.872 42.6277 163.416 42.8809C163.96 43.134 164.424 43.4986 164.806 43.9745C165.179 44.4504 165.472 45.0174 165.673 45.6959C165.875 46.3743 165.975 47.1236 165.975 47.954V49.6247C165.975 50.4652 165.875 51.2145 165.673 51.8828C165.472 52.5511 165.179 53.1283 164.806 53.6042C164.434 54.0802 163.96 54.4447 163.416 54.6978C162.872 54.951 162.247 55.0826 161.541 55.0826C160.836 55.0826 160.211 54.9611 159.667 54.6978C159.123 54.4447 158.659 54.0802 158.276 53.6042C157.904 53.1283 157.611 52.5613 157.41 51.8828C157.208 51.2145 157.107 50.4551 157.107 49.6247V47.954C157.107 47.1236 157.208 46.3642 157.4 45.6959C157.591 45.0276 157.883 44.4504 158.256 43.9745C158.629 43.4986 159.103 43.134 159.647 42.8809C160.201 42.6277 160.826 42.4961 161.531 42.4961H161.541ZM161.531 54.0093C162.549 54.0093 163.355 53.6245 163.95 52.865C164.544 52.1056 164.837 50.9917 164.837 49.5235V48.0552C164.837 46.587 164.544 45.4731 163.95 44.7137C163.355 43.9542 162.549 43.5694 161.531 43.5694C160.514 43.5694 159.707 43.9542 159.113 44.7137C158.518 45.4731 158.226 46.587 158.226 48.0552V49.5235C158.226 50.9917 158.518 52.1056 159.113 52.865C159.707 53.6245 160.514 54.0093 161.531 54.0093Z" fill="#231815"/>
<path d="M172.677 49.6035C172.607 49.6136 172.536 49.6238 172.466 49.6238H169.412V54.8892H168.304V42.6875H172.224C172.788 42.6875 173.292 42.7685 173.735 42.9305C174.179 43.0925 174.552 43.3254 174.864 43.6292C175.176 43.933 175.408 44.2773 175.569 44.6823C175.731 45.0873 175.811 45.5228 175.811 45.9987V46.2518C175.811 47.0011 175.63 47.6391 175.257 48.1757C174.884 48.7124 174.39 49.1073 173.756 49.3504L176.043 54.8892H174.864L172.667 49.6136L172.677 49.6035ZM169.412 43.7507V48.5605H171.901C172.889 48.5605 173.604 48.358 174.038 47.9429C174.471 47.5277 174.693 46.9505 174.693 46.2113V46.0392C174.693 45.3304 174.481 44.7734 174.058 44.3684C173.635 43.9634 172.969 43.7608 172.083 43.7608H169.412V43.7507Z" fill="#231815"/>
<path d="M185.082 42.6777V43.7308H179.348V48.0951H184.749V49.1482H179.348V53.8365H185.193V54.8795H178.239V42.6777H185.082Z" fill="#231815"/>
<path d="M196.227 54.8795H195.048L193.788 51.0924H188.981L187.691 54.8795H186.553L190.775 42.6777H192.025L196.237 54.8795H196.227ZM189.324 50.0595H193.436L192.337 46.7585C192.267 46.556 192.196 46.3534 192.136 46.1712C192.075 45.9788 192.005 45.7661 191.934 45.5332C191.863 45.3003 191.783 45.0371 191.692 44.7535C191.612 44.47 191.511 44.1257 191.39 43.7308C191.279 44.1257 191.188 44.47 191.108 44.7535C191.027 45.0371 190.946 45.3003 190.866 45.5332C190.795 45.7661 190.725 45.9788 190.664 46.1712C190.604 46.3636 190.533 46.556 190.463 46.7585L189.324 50.0595Z" fill="#231815"/>
<path d="M38.6084 16.2997C38.6084 14.953 39.6967 13.8594 41.037 13.8594C42.3773 13.8594 43.4656 14.953 43.4656 16.2997C43.4656 17.6465 42.3773 18.7401 41.037 18.7401C39.6967 18.7401 38.6084 17.6465 38.6084 16.2997Z" fill="#0047BA"/>
<path d="M41.0374 26.1623C37.208 26.1623 33.3786 24.6941 30.4663 21.7677C29.519 20.8259 29.519 19.2868 30.4663 18.335C31.4136 17.3831 32.9352 17.3831 33.8825 18.335C37.8328 22.3043 44.252 22.3043 48.2023 18.335C49.1496 17.3831 50.6713 17.3831 51.6185 18.335C52.5658 19.2868 52.5658 20.8158 51.6185 21.7677C48.7062 24.6941 44.8768 26.1623 41.0475 26.1623" fill="#0047BA"/>
<path d="M61.202 23.7919C61.202 25.1387 60.1136 26.2323 58.7734 26.2323C57.4331 26.2323 56.3447 25.1387 56.3447 23.7919C56.3447 22.4452 57.4331 21.3516 58.7734 21.3516C60.1136 21.3516 61.202 22.4452 61.202 23.7919Z" fill="#0047BA"/>
<path d="M49.9067 22.4762C49.292 22.4762 48.6672 22.2433 48.2036 21.7674C47.2563 20.8155 47.2563 19.2865 48.2036 18.3347C54.0384 12.4718 63.5211 12.4718 69.3458 18.3347C70.293 19.2865 70.293 20.8155 69.3458 21.7674C68.3985 22.7192 66.8768 22.7192 65.9296 21.7674C61.9793 17.798 55.56 17.798 51.6097 21.7674C51.1361 22.2433 50.5214 22.4762 49.9067 22.4762Z" fill="#0047BA"/>
<path d="M38.6084 55.2548C38.6084 53.9081 39.6967 52.8145 41.037 52.8145C42.3773 52.8145 43.4656 53.9081 43.4656 55.2548C43.4656 56.6015 42.3773 57.6951 41.037 57.6951C39.6967 57.6951 38.6084 56.6015 38.6084 55.2548Z" fill="#3CB4E5"/>
<path d="M41.0374 65.1076C37.208 65.1076 33.3786 63.6495 30.4663 60.713C29.519 59.7713 29.519 58.2321 30.4663 57.2803C31.4136 56.3284 32.9352 56.3284 33.8825 57.2803C37.8328 61.2496 44.252 61.2496 48.2023 57.2803C49.1496 56.3284 50.6713 56.3284 51.6185 57.2803C52.5658 58.222 52.5658 59.7611 51.6185 60.713C48.7062 63.6394 44.8768 65.1076 41.0475 65.1076" fill="#3CB4E5"/>
<path d="M61.202 62.7489C61.202 64.0957 60.1136 65.1893 58.7734 65.1893C57.4331 65.1893 56.3447 64.0957 56.3447 62.7489C56.3447 61.4022 57.4331 60.3086 58.7734 60.3086C60.1136 60.3086 61.202 61.4022 61.202 62.7489Z" fill="#3CB4E5"/>
<path d="M49.9067 61.4195C49.292 61.4195 48.6672 61.1866 48.2036 60.7107C47.2563 59.7589 47.2563 58.2299 48.2036 57.278C54.0384 51.4151 63.5211 51.4151 69.3458 57.278C70.293 58.2299 70.293 59.7589 69.3458 60.7107C68.3985 61.6524 66.8768 61.6524 65.9296 60.7107C61.9793 56.7414 55.56 56.7414 51.6097 60.7107C51.1361 61.1866 50.5214 61.4195 49.9067 61.4195Z" fill="#3CB4E5"/>
<path d="M47.4775 39.5282C47.4775 38.1815 48.5659 37.0879 49.9062 37.0879C51.2464 37.0879 52.3348 38.1815 52.3348 39.5282C52.3348 40.875 51.2464 41.9686 49.9062 41.9686C48.5659 41.9686 47.4775 40.875 47.4775 39.5282Z" fill="#B9C6D7"/>
<path d="M70.0701 48.0946C70.0701 49.4414 68.9818 50.535 67.6415 50.535C66.3012 50.535 65.2129 49.4414 65.2129 48.0946C65.2129 46.7479 66.3012 45.6543 67.6415 45.6543C68.9818 45.6543 70.0701 46.7479 70.0701 48.0946Z" fill="#B9C6D7"/>
<path d="M58.7739 46.7791C58.1591 46.7791 57.5344 46.5462 57.0708 46.0703C56.1235 45.1185 56.1235 43.5895 57.0708 42.6376C62.9055 36.7849 72.3883 36.7849 78.223 42.6376C79.1703 43.5895 79.1703 45.1185 78.223 46.0703C77.2758 47.012 75.7541 47.012 74.8068 46.0703C70.8565 42.101 64.4373 42.101 60.487 46.0703C60.0134 46.5462 59.3987 46.7791 58.7839 46.7791" fill="#B9C6D7"/>
<path d="M34.5985 48.0946C34.5985 49.4414 33.5101 50.535 32.1698 50.535C30.8296 50.535 29.7412 49.4414 29.7412 48.0946C29.7412 46.7479 30.8296 45.6543 32.1698 45.6543C33.5101 45.6543 34.5985 46.7479 34.5985 48.0946Z" fill="#B9C6D7"/>
<path d="M23.311 46.7791C22.6963 46.7791 22.0715 46.5462 21.6079 46.0703C20.6606 45.1185 20.6606 43.5895 21.6079 42.6376C27.4427 36.7849 36.9254 36.7849 42.75 42.6376C43.6973 43.5895 43.6973 45.1185 42.75 46.0703C41.8028 47.012 40.2811 47.012 39.3339 46.0703C35.3836 42.101 28.9643 42.101 25.014 46.0703C24.5404 46.5462 23.9257 46.7791 23.311 46.7791Z" fill="#B9C6D7"/>
<path d="M49.9055 50.465C46.0762 50.465 42.2468 48.9968 39.3345 46.0704C38.3872 45.1186 38.3872 43.5895 39.3345 42.6377C40.2817 41.696 41.8034 41.696 42.7507 42.6377C46.701 46.6071 53.1202 46.6071 57.0705 42.6377C58.0178 41.6859 59.5394 41.6859 60.4867 42.6377C61.434 43.5895 61.434 45.1186 60.4867 46.0704C57.5744 48.9968 53.745 50.465 49.9156 50.465" fill="#B9C6D7"/>
<path d="M29.7412 30.9501C29.7412 29.6034 30.8296 28.5098 32.1698 28.5098C33.5101 28.5098 34.5985 29.6034 34.5985 30.9501C34.5985 32.2969 33.5101 33.3905 32.1698 33.3905C30.8296 33.3905 29.7412 32.2969 29.7412 30.9501Z" fill="#00ADBB"/>
<path d="M32.1692 40.8049C28.3398 40.8049 24.5105 39.3366 21.5981 36.4102C20.6509 35.4584 20.6509 33.9294 21.5981 32.9775C22.5454 32.0257 24.0671 32.0257 25.0143 32.9775C28.9646 36.9469 35.3839 36.9469 39.3342 32.9775C40.2714 32.0257 41.8031 32.0257 42.7504 32.9775C43.6976 33.9294 43.6976 35.4584 42.7504 36.4102C39.838 39.3366 36.0087 40.8049 32.1793 40.8049" fill="#00ADBB"/>
<path d="M65.2129 30.9501C65.2129 29.6034 66.3012 28.5098 67.6415 28.5098C68.9818 28.5098 70.0701 29.6034 70.0701 30.9501C70.0701 32.2969 68.9818 33.3905 67.6415 33.3905C66.3012 33.3905 65.2129 32.2969 65.2129 30.9501Z" fill="#00ADBB"/>
<path d="M67.6321 40.8049C63.8027 40.8049 59.9734 39.3366 57.061 36.4102C56.1138 35.4584 56.1138 33.9294 57.061 32.9775C58.0083 32.0257 59.53 32.0257 60.4772 32.9775C64.4275 36.9469 70.8468 36.9469 74.7971 32.9775C75.7443 32.0257 77.266 32.0257 78.2133 32.9775C79.1605 33.9294 79.1605 35.4584 78.2133 36.4102C75.3009 39.3366 71.4715 40.8049 67.6422 40.8049" fill="#00ADBB"/>
<path d="M41.0375 37.1285C40.4228 37.1285 39.798 36.8855 39.3345 36.4197C38.3872 35.4679 38.3872 33.9389 39.3345 32.987C45.1591 27.1241 54.6519 27.1241 60.4766 32.987C61.4239 33.9389 61.4239 35.4679 60.4766 36.4197C59.5293 37.3716 58.0077 37.3716 57.0604 36.4197C53.1101 32.4504 46.6909 32.4504 42.7406 36.4197C42.267 36.8956 41.6522 37.1285 41.0375 37.1285Z" fill="#00ADBB"/>
<path d="M238.411 13.6387V65.5037" stroke="#231815" stroke-width="0.77"/>
</svg>
